<?xml version="1.0" encoding="UTF-8"?><svg id="uuid-a3b07685-cde2-4e85-847a-2e023deecb60" xmlns="http://www.w3.org/2000/svg" viewBox="0 0 512 512"><defs><style>.uuid-1899092d-4d62-4e86-b05d-cb0aa15e1b72{fill:#63acc9;stroke-width:0px;}</style></defs><path class="uuid-1899092d-4d62-4e86-b05d-cb0aa15e1b72" d="m414.82,92.95h-183.43c-22.48,0-40.76,18.28-40.76,40.76l-9.72,71.8,19.91-.26c3.6-.06,6.89,1.28,9.36,3.52.26.24.52.49.76.74,2.29,2.41,3.71,5.66,3.75,9.25.02,1.67-.26,3.26-.78,4.74-1.91-5.39-7.08-9.22-13.09-9.13l-54.22.72c-7.56.1-13.61,6.31-13.51,13.87.1,7.5,6.21,13.51,13.69,13.51.06,0,.12,0,.19,0l28.99-.38-3.97,29.35,23.77-.32c.06,0,.12,0,.19,0,1.89,0,3.7.39,5.34,1.09.37.16.74.33,1.1.52,4.26,2.28,7.18,6.73,7.25,11.9.02,1.67-.26,3.27-.79,4.75-1.88-5.33-6.95-9.13-12.9-9.13-.06,0-.12,0-.19,0l-93.2,1.24c-7.56.1-13.61,6.31-13.51,13.87.1,7.5,6.21,13.51,13.69,13.51.06,0,.12,0,.19,0l64.11-.85-3.97,29.35,29.14-.39h1.03c.06-.01.12-.01.19-.01.09,0,.18.01.26.01h0c7.36.14,13.33,6.09,13.42,13.5.02,1.67-.27,3.26-.79,4.74-1.89-5.32-6.95-9.12-12.9-9.12-.06,0-.12,0-.19,0l-146.58,1.95c-7.56.1-13.61,6.31-13.51,13.87.1,7.5,6.21,13.51,13.69,13.51.06,0,.12,0,.19,0l111.09-1.48-.58,4.32c0,22.48,18.28,40.76,40.76,40.76h183.43c22.48,0,40.76-18.28,40.76-40.76l33.12-244.57c0-22.48-18.28-40.76-40.76-40.76Zm-145.8,122.65c3.68-22.68,25.15-41.13,47.93-41.13s38.14,18.44,34.32,41.13c-3.81,22.61-25.24,40.88-47.89,40.88s-38.04-18.27-34.36-40.88Zm94.02,111.85c-.95,5.54-6.3,10.08-11.91,10.08h-122.29c-5.6,0-9.46-4.53-8.58-10.08,4.47-27.92,31.01-50.61,59.28-50.61h40.94c28.28,0,47.31,22.7,42.55,50.61Z"/></svg>